<svg width="17" height="20" viewBox="0 5 30 15" fill="none" xmlns="http://www.w3.org/2000/svg">
    <g clip-path="url(#clip0)">
        <path
            d="M31.6 12.2L17.8 2.6C16.7 1.8 15.2 1.8 14.1 2.6L0.399963 12.2C-0.100037 12.5 -0.200037 13.1 0.0999634 13.6C0.399963 14.1 0.999963 14.2 1.49996 13.9L3.99996 12.1V22.9C3.99996 26.8 7.19996 30 11.1 30H21C24.9 30 28.1 26.8 28.1 22.9V12.1L30.5 13.8C30.6 14 30.8 14 31 14C31.3 14 31.6 13.8 31.8 13.6C32.1 13.1 32 12.5 31.6 12.2ZM26 22.9C26 25.7 23.7 27.9 21 27.9H11.1C8.29996 27.9 6.09996 25.6 6.09996 22.9V10.7L15.5 4.2C15.9 3.9 16.4 3.9 16.8 4.2L26.1 10.7L26 22.9Z"
            fill="#F9F9F9" />
    </g>
    <defs>
        <clipPath id="clip0">
            <rect width="32" height="32" fill="white" />
        </clipPath>
    </defs>
</svg>
