<svg width="17" height="20" viewBox="0 0 12 8" fill="none" xmlns="http://www.w3.org/2000/svg">
    <path
        d="M6 1C7.56485 1 8.7448 2.41637 8.45645 3.94862L7.6939 8H10.0025C10.6188 8 11.0875 8.55485 10.9862 9.1644L10.7459 10.6101C10.7085 10.8351 10.5144 11 10.2869 11H1.7413C1.49756 11 1.28954 10.8233 1.24946 10.5822L1.01382 9.1644C0.912506 8.55485 1.38125 8 1.99749 8H4.30609L3.54357 3.94862C3.25518 2.41638 4.43513 1 6 1ZM10.0025 9H1.99749L2.16369 10H9.8363L10.0025 9ZM6 2C5.06365 2 4.35762 2.8475 4.53018 3.76433L5.3274 8H6.6726L7.46985 3.76433C7.6424 2.8475 6.93635 2 6 2Z"
        fill="#F9F9F9" />
</svg>
